<?xml version="1.0" encoding="UTF-8"?>
<svg xmlns="http://www.w3.org/2000/svg" xmlns:xlink="http://www.w3.org/1999/xlink" width="24px" height="24px" viewBox="0 0 24 24" version="1.1">
<g id="surface1">
<path style=" stroke:none;fill-rule:nonzero;fill:currentColor;fill-opacity:1;" d="M 9.867188 0.667969 C 9.949219 0.714844 10.03125 0.761719 10.113281 0.8125 C 10.324219 0.941406 10.324219 0.941406 10.667969 1.199219 C 10.792969 1.292969 10.917969 1.386719 11.050781 1.484375 C 11.144531 1.566406 11.238281 1.648438 11.332031 1.734375 C 11.332031 1.820312 11.332031 1.910156 11.332031 2 C 11.710938 2.140625 11.878906 2.195312 12.265625 2.132812 C 12.625 1.863281 12.929688 1.5625 13.25 1.25 C 13.753906 0.792969 14.304688 0.519531 14.933594 0.265625 C 15.046875 0.21875 15.160156 0.167969 15.277344 0.121094 C 15.949219 -0.0546875 16.601562 -0.0507812 17.292969 -0.0507812 C 17.496094 -0.0546875 17.496094 -0.0546875 17.707031 -0.0585938 C 18.988281 -0.0664062 20.066406 0.277344 21.160156 0.949219 C 21.269531 1.015625 21.378906 1.082031 21.492188 1.152344 C 21.574219 1.210938 21.652344 1.269531 21.734375 1.332031 C 21.734375 1.421875 21.734375 1.507812 21.734375 1.601562 C 21.808594 1.628906 21.886719 1.660156 21.964844 1.691406 C 22.96875 2.277344 23.515625 3.605469 23.867188 4.667969 C 23.910156 4.796875 23.953125 4.929688 24 5.066406 C 24.035156 5.558594 24.03125 6.054688 24.035156 6.550781 C 24.039062 6.75 24.039062 6.75 24.042969 6.957031 C 24.046875 8.277344 23.675781 9.246094 23.066406 10.398438 C 22.980469 10.398438 22.890625 10.398438 22.800781 10.398438 C 22.742188 10.519531 22.742188 10.519531 22.683594 10.640625 C 22.535156 10.933594 22.535156 10.933594 22.265625 11.332031 C 22.179688 11.332031 22.089844 11.332031 22 11.332031 C 22 11.421875 22 11.507812 22 11.601562 C 21.910156 11.601562 21.824219 11.601562 21.734375 11.601562 C 21.734375 11.863281 21.734375 12.128906 21.734375 12.398438 C 21.820312 12.398438 21.910156 12.398438 22 12.398438 C 22 12.488281 22 12.574219 22 12.667969 C 22.132812 12.710938 22.265625 12.753906 22.398438 12.800781 C 22.800781 13.257812 22.800781 13.257812 22.800781 13.601562 C 22.886719 13.601562 22.976562 13.601562 23.066406 13.601562 C 23.171875 13.800781 23.277344 14.003906 23.382812 14.207031 C 23.441406 14.320312 23.5 14.433594 23.5625 14.550781 C 23.988281 15.503906 24.046875 16.355469 24.042969 17.382812 C 24.042969 17.515625 24.046875 17.648438 24.046875 17.785156 C 24.050781 19.621094 23.238281 21.066406 22 22.398438 C 20.417969 23.90625 18.609375 24.089844 16.523438 24.050781 C 14.941406 23.980469 13.820312 23.332031 12.667969 22.265625 C 12.601562 22.1875 12.539062 22.109375 12.472656 22.027344 C 12.265625 21.832031 12.265625 21.832031 11.941406 21.878906 C 11.542969 22.019531 11.34375 22.199219 11.042969 22.5 C 9.472656 23.957031 7.757812 24.085938 5.714844 24.050781 C 4.800781 24.011719 4.121094 23.8125 3.332031 23.332031 C 3.222656 23.273438 3.113281 23.210938 3.003906 23.148438 C 2.699219 22.976562 2.699219 22.976562 2.265625 22.667969 C 2.265625 22.578125 2.265625 22.492188 2.265625 22.398438 C 2.179688 22.363281 2.097656 22.328125 2.007812 22.292969 C 1.734375 22.132812 1.734375 22.132812 1.601562 21.734375 C 1.511719 21.734375 1.425781 21.734375 1.332031 21.734375 C 1.152344 21.488281 1.152344 21.488281 0.949219 21.148438 C 0.851562 20.988281 0.851562 20.988281 0.75 20.820312 C 0.152344 19.664062 -0.09375 18.726562 -0.0742188 17.417969 C -0.0742188 17.269531 -0.0742188 17.121094 -0.0703125 16.96875 C -0.0429688 15.886719 0.0820312 15.066406 0.667969 14.132812 C 0.730469 14.023438 0.796875 13.910156 0.867188 13.796875 C 1.15625 13.332031 1.449219 12.933594 1.859375 12.566406 C 1.949219 12.46875 2.039062 12.367188 2.132812 12.265625 C 2.101562 11.695312 1.894531 11.4375 1.5 11.042969 C 0.941406 10.441406 0.578125 9.824219 0.265625 9.066406 C 0.21875 8.953125 0.167969 8.84375 0.121094 8.726562 C -0.28125 7.179688 -0.277344 5.078125 0.476562 3.644531 C 0.539062 3.539062 0.601562 3.4375 0.667969 3.332031 C 0.757812 3.167969 0.757812 3.167969 0.851562 3.003906 C 1.023438 2.699219 1.023438 2.699219 1.332031 2.265625 C 1.421875 2.265625 1.507812 2.265625 1.601562 2.265625 C 1.636719 2.179688 1.671875 2.097656 1.707031 2.007812 C 1.867188 1.734375 1.867188 1.734375 2.265625 1.601562 C 2.265625 1.511719 2.265625 1.425781 2.265625 1.332031 C 2.609375 1.027344 2.730469 0.933594 3.199219 0.933594 C 3.199219 0.84375 3.199219 0.757812 3.199219 0.667969 C 5.09375 -0.386719 8 -0.507812 9.867188 0.667969 Z M 3.867188 3.734375 C 3.757812 3.972656 3.757812 3.972656 3.734375 4.265625 C 3.914062 4.546875 3.914062 4.546875 4.175781 4.800781 C 4.683594 5.328125 4.949219 5.707031 4.984375 6.449219 C 5.039062 7.042969 5.207031 7.40625 5.601562 7.867188 C 6.007812 8.117188 6.378906 8.183594 6.851562 8.25 C 7.640625 8.382812 8.136719 8.644531 8.683594 9.242188 C 8.765625 9.316406 8.847656 9.390625 8.933594 9.464844 C 9.230469 9.449219 9.230469 9.449219 9.464844 9.332031 C 9.390625 8.859375 9.230469 8.671875 8.882812 8.351562 C 8.308594 7.730469 8.207031 7.078125 8.066406 6.261719 C 8.023438 5.878906 8.023438 5.878906 7.867188 5.601562 C 7.777344 5.601562 7.691406 5.601562 7.601562 5.601562 C 7.601562 5.511719 7.601562 5.425781 7.601562 5.332031 C 7.214844 5.117188 6.9375 5.039062 6.5 5.023438 C 5.535156 4.9375 4.929688 4.398438 4.265625 3.734375 C 4.132812 3.734375 4.003906 3.734375 3.867188 3.734375 Z M 16.132812 5.464844 C 15.308594 5.632812 14.566406 5.578125 13.734375 5.464844 C 13.6875 5.644531 13.644531 5.820312 13.601562 6 C 13.757812 6.058594 13.917969 6.117188 14.082031 6.175781 C 14.277344 6.25 14.472656 6.324219 14.667969 6.398438 C 14.800781 6.453125 14.9375 6.503906 15.074219 6.558594 C 15.542969 6.847656 15.832031 7.191406 16.171875 7.621094 C 16.417969 7.886719 16.59375 8.011719 16.933594 8.132812 C 17.234375 8.148438 17.234375 8.148438 17.542969 8.101562 C 17.695312 8.082031 17.695312 8.082031 17.851562 8.066406 C 18.171875 8.007812 18.171875 8.007812 18.535156 7.734375 C 19.390625 7.554688 20.207031 7.609375 21.066406 7.734375 C 21.109375 7.558594 21.15625 7.382812 21.199219 7.199219 C 21.125 7.175781 21.046875 7.15625 20.96875 7.132812 C 19.984375 6.820312 19.171875 6.558594 18.667969 5.601562 C 18.578125 5.601562 18.492188 5.601562 18.398438 5.601562 C 18.398438 5.511719 18.398438 5.425781 18.398438 5.332031 C 17.597656 4.820312 16.917969 5.066406 16.132812 5.464844 Z M 18.265625 13.601562 C 18.234375 13.675781 18.203125 13.753906 18.167969 13.835938 C 17.730469 14.859375 17.3125 15.574219 16.375 16.199219 C 15.964844 16.539062 15.875 16.84375 15.824219 17.367188 C 15.859375 17.796875 15.910156 18.003906 16.074219 18.382812 C 16.328125 18.996094 16.25 19.492188 16.132812 20.132812 C 16.109375 20.3125 16.082031 20.496094 16.058594 20.675781 C 16.039062 20.804688 16.019531 20.933594 16 21.066406 C 16.175781 21.109375 16.351562 21.15625 16.535156 21.199219 C 16.578125 21.089844 16.625 20.980469 16.667969 20.867188 C 16.730469 20.726562 16.789062 20.582031 16.851562 20.433594 C 16.910156 20.292969 16.96875 20.148438 17.027344 20.003906 C 17.417969 19.089844 17.417969 19.089844 17.800781 18.910156 C 17.910156 18.871094 18.019531 18.835938 18.132812 18.800781 C 18.265625 18.734375 18.265625 18.734375 18.398438 18.667969 C 18.398438 18.578125 18.398438 18.492188 18.398438 18.398438 C 18.488281 18.398438 18.574219 18.398438 18.667969 18.398438 C 18.988281 17.792969 18.945312 17.316406 18.800781 16.667969 C 18.753906 16.558594 18.707031 16.445312 18.660156 16.332031 C 18.347656 15.5 18.566406 14.6875 18.800781 13.867188 C 18.625 13.777344 18.449219 13.691406 18.265625 13.601562 Z M 5.332031 16.398438 C 5.203125 16.597656 5.203125 16.597656 5.066406 16.800781 C 4.644531 17.433594 4.128906 17.699219 3.425781 17.933594 C 3.179688 18.03125 3.179688 18.03125 2.933594 18.132812 C 2.828125 18.402344 2.828125 18.402344 2.800781 18.667969 C 3.058594 18.632812 3.058594 18.632812 3.324219 18.601562 C 4.410156 18.484375 5.117188 18.484375 6.132812 18.933594 C 6.707031 18.980469 7.109375 18.980469 7.601562 18.667969 C 7.601562 18.578125 7.601562 18.492188 7.601562 18.398438 C 7.6875 18.398438 7.777344 18.398438 7.867188 18.398438 C 7.945312 18.277344 8.019531 18.15625 8.101562 18.035156 C 8.648438 17.238281 9.386719 16.96875 10.265625 16.667969 C 10.265625 16.492188 10.265625 16.316406 10.265625 16.132812 C 10.039062 16.167969 10.039062 16.167969 9.808594 16.199219 C 8.75 16.328125 8.054688 16.304688 7.066406 15.867188 C 6.304688 15.773438 5.917969 15.90625 5.332031 16.398438 Z M 5.332031 16.398438 "/>
</g>
</svg>
