<?xml version="1.0" encoding="UTF-8"?>
<svg xmlns="http://www.w3.org/2000/svg" xmlns:xlink="http://www.w3.org/1999/xlink" width="24px" height="24px" viewBox="0 0 24 24" version="1.1">
<g id="surface1">
<path style=" stroke:none;fill-rule:nonzero;fill:currentColor;fill-opacity:1;" d="M 0 0 C 7.921875 0 15.839844 0 24 0 C 24 7.921875 24 15.839844 24 24 C 21.097656 24 18.191406 24 15.199219 24 C 15.199219 19.246094 15.199219 14.496094 15.199219 9.601562 C 17.3125 9.601562 19.425781 9.601562 21.601562 9.601562 C 21.601562 7.753906 21.601562 5.902344 21.601562 4 C 15.265625 4 8.929688 4 2.398438 4 C 2.398438 5.847656 2.398438 7.695312 2.398438 9.601562 C 4.511719 9.601562 6.625 9.601562 8.800781 9.601562 C 8.800781 14.351562 8.800781 19.105469 8.800781 24 C 5.894531 24 2.992188 24 0 24 C 0 16.078125 0 8.160156 0 0 Z M 0 0 "/>
</g>
</svg>
